<?xml version="1.0" encoding="UTF-8"?><svg id="Capa_1" xmlns="http://www.w3.org/2000/svg" viewBox="0 0 100 100"><defs><style>.cls-1{fill:#ef5518;}.cls-2{fill:#fff;}.cls-3{fill:#ff850b;}</style></defs><path class="cls-3" d="M95.29,44.53l-30.2-8.45-2.5-.7c-.16-.04-.3-.07-.45-.09-5.38-1.05-11.46-.13-17.43,3.5-5.56,3.38-8.81,9.55-8.81,16.06v-21.3c0-1.13-.46-2.14-1.2-2.88s-1.75-1.2-2.88-1.2c-2.25,0-4.08,1.83-4.08,4.08v13.69c-.13-.08-.26-.16-.39-.24-2.51-1.46-5.45-2.3-8.56-2.3h-8.96v-19.59c0-1.12-.46-2.14-1.2-2.88-.74-.74-1.75-1.2-2.88-1.2-2.26,0-4.09,1.83-4.09,4.08v40.49c0,7.37,5.97,13.34,13.34,13.34h20.6c.17,0,.3-.14.3-.32v.32h26.49c5.16,0,9.79-2.22,13-5.75l.08-.09,21.67-21.67c2.25-2.25,1.22-6.09-1.84-6.92ZM8.63,65.19c-1.08,0-1.95-2.7-1.95-6.02s.87-6.02,1.95-6.02,1.96,2.7,1.96,6.02-.88,6.02-1.96,6.02ZM19.1,65.19c-1.08,0-1.96-2.7-1.96-6.02s.88-6.02,1.96-6.02,1.95,2.7,1.95,6.02-.87,6.02-1.95,6.02ZM84.07,53.08l-14.29,13.81-.03.04-2.54,2.45c-.07.07-.12.12-.18.16-.29.21-.59.42-.91.62-2.45,1.58-5.37,2.5-8.51,2.5-8.69,0-15.73-7.04-15.73-15.73s7.04-15.73,15.73-15.73c1.28,0,2.51.14,3.7.45.03,0,.07,0,.09.01l.95.26,20.27,5.74c2.41.64,3.22,3.67,1.45,5.43Z"/><path class="cls-1" d="M10.59,59.17c0,3.33-.88,6.02-1.96,6.02s-1.95-2.7-1.95-6.02.87-6.02,1.95-6.02,1.96,2.7,1.96,6.02Z"/><path class="cls-1" d="M21.05,59.17c0,3.33-.87,6.02-1.95,6.02s-1.96-2.7-1.96-6.02.88-6.02,1.96-6.02,1.95,2.7,1.95,6.02Z"/><path class="cls-1" d="M65.09,36.08l-2.5-.7c.86.18,1.7.41,2.5.7Z"/><path class="cls-2" d="M10.59,59.17c0,3.33-.88,6.02-1.96,6.02s-1.95-2.7-1.95-6.02.87-6.02,1.95-6.02,1.96,2.7,1.96,6.02Z"/><path class="cls-2" d="M21.05,59.17c0,3.33-.87,6.02-1.95,6.02s-1.96-2.7-1.96-6.02.88-6.02,1.96-6.02,1.95,2.7,1.95,6.02Z"/><path class="cls-2" d="M69.76,66.93c-.75.91-1.59,1.74-2.54,2.45l2.54-2.45Z"/><path class="cls-2" d="M67.03,69.53c-.28.26-.58.46-.91.62.32-.2.62-.41.91-.62Z"/></svg>